<?xml version="1.0" standalone="no"?>
<!DOCTYPE svg PUBLIC "-//W3C//DTD SVG 20010904//EN"
 "http://www.w3.org/TR/2001/REC-SVG-20010904/DTD/svg10.dtd">
<svg version="1.0" xmlns="http://www.w3.org/2000/svg"
 width="263.000000pt" height="225.000000pt" viewBox="0 0 263.000000 225.000000"
 preserveAspectRatio="xMidYMid meet">

<g transform="translate(0.000000,225.000000) scale(0.100000,-0.100000)"
fill="#000000" stroke="none">
<path d="M333 2239 c-75 -14 -192 -80 -193 -107 0 -7 -4 -11 -9 -8 -13 8 -73
-75 -66 -92 5 -14 -13 -53 -32 -65 -7 -4 -10 -14 -7 -22 4 -8 1 -15 -5 -15 -6
0 -11 -13 -11 -30 0 -28 3 -30 36 -30 19 0 42 -6 49 -12 8 -7 21 -19 30 -26
19 -16 19 -28 -1 -36 -8 -3 -13 -2 -10 2 3 4 -5 14 -16 21 -18 11 -20 11 -15
-3 5 -13 0 -15 -38 -9 l-45 6 0 -87 c0 -49 4 -86 10 -86 17 0 39 44 42 83 3
43 5 45 18 13 12 -34 -5 -89 -41 -130 l-29 -34 0 -451 0 -451 23 -1 c12 0 17
-3 10 -5 -14 -6 -6 -34 15 -51 14 -12 13 -13 -4 -13 -11 0 -26 6 -33 13 -10
10 -12 -16 -8 -133 5 -152 18 -210 45 -210 15 1 15 2 0 11 -10 5 -18 14 -18
20 0 6 6 7 16 1 17 -10 54 -5 54 7 0 3 9 17 20 31 l20 25 -10 -35 c-11 -39
-43 -87 -55 -82 -5 2 -12 -3 -17 -12 -13 -23 48 -104 113 -152 101 -74 122
-78 421 -82 245 -3 269 -2 285 14 17 16 18 16 21 1 3 -12 14 -17 39 -17 27 0
33 3 26 13 -18 21 -4 71 28 100 24 22 38 27 70 25 21 -1 39 -7 39 -13 0 -7
-13 -9 -33 -7 -46 5 -86 -30 -89 -78 l-3 -35 341 -2 342 -3 -9 38 c-11 49 -11
62 1 62 6 0 10 -7 10 -15 0 -8 4 -15 8 -15 4 0 13 -15 20 -33 11 -31 16 -34
57 -35 42 -2 44 -1 36 21 -5 12 -23 46 -40 75 -17 28 -27 52 -22 52 5 0 14
-13 21 -30 7 -16 15 -30 19 -30 4 0 15 -14 25 -30 9 -17 21 -28 27 -25 5 4 6
-2 2 -11 -5 -13 -3 -16 10 -11 9 3 19 2 22 -3 4 -6 21 -9 38 -9 25 1 27 3 9 6
-36 7 -20 29 17 25 30 -3 32 -2 26 20 -14 43 -37 83 -68 115 -40 42 -30 51 22
19 51 -33 61 -33 31 -1 -13 14 -19 25 -13 25 6 0 16 -7 24 -16 18 -21 65 -45
74 -36 3 4 5 0 3 -8 -1 -8 2 -14 9 -15 7 0 21 -7 31 -16 10 -9 31 -19 45 -23
23 -5 18 2 -31 52 -31 33 -68 64 -80 71 -13 7 -22 15 -19 17 3 3 38 -11 78
-30 64 -31 70 -32 44 -11 -30 25 -28 33 4 15 10 -5 30 -11 46 -14 33 -6 43
-15 28 -24 -12 -8 -11 -59 2 -107 8 -29 7 -29 -11 -14 -26 23 -67 28 -83 11
-10 -10 -16 -11 -24 -3 -19 19 -30 12 -25 -14 4 -19 1 -25 -13 -25 -11 0 -19
-4 -19 -10 0 -14 264 -11 320 3 33 9 45 17 47 32 2 11 0 15 -3 9 -4 -10 -48 6
-93 34 -3 1 3 8 12 15 9 6 21 25 27 40 11 30 37 32 32 3 -8 -43 56 5 92 69 16
27 17 28 12 5 -3 -14 -6 -36 -6 -50 0 -15 -3 -20 -8 -13 -4 6 -7 -13 -7 -43 0
-36 3 -47 7 -34 5 11 12 30 17 43 9 21 10 21 10 -5 1 -16 5 -28 10 -28 11 0
91 82 105 107 6 12 5 18 -5 22 -33 11 -69 60 -69 95 0 45 37 85 54 57 4 -5 0
-12 -6 -14 -9 -4 -7 -6 3 -6 11 -1 15 -9 14 -26 -2 -14 1 -23 6 -19 5 3 9 0 9
-5 0 -6 9 -11 19 -11 15 0 22 11 30 50 6 28 11 61 10 73 0 18 -4 16 -17 -13
l-16 -35 -4 28 c-2 16 5 43 17 63 18 30 21 51 20 144 0 101 -2 110 -21 116
-15 4 -17 9 -9 17 9 9 14 8 21 -3 7 -10 10 19 10 87 0 87 -3 104 -17 112 -17
10 -17 10 0 11 16 0 17 20 17 284 0 179 -4 287 -10 291 -5 3 -10 11 -10 16 0
6 5 7 10 4 6 -4 10 7 10 27 0 29 -5 35 -32 46 -17 6 -34 9 -37 7 -2 -3 1 -5 8
-5 7 0 9 -4 6 -10 -10 -16 -26 -11 -24 8 3 33 -1 42 -18 43 -10 0 -13 3 -7 5
6 2 8 18 6 34 -5 35 1 37 35 10 15 -12 20 -20 12 -20 -8 0 -16 -11 -17 -24 -1
-20 4 -24 33 -28 l35 -4 0 79 c0 74 -1 78 -20 72 -14 -4 -20 -2 -20 9 0 8 9
18 20 21 33 10 25 54 -15 91 -34 31 -46 64 -24 64 5 0 8 -4 5 -9 -3 -5 3 -11
14 -14 25 -6 25 8 4 59 -47 111 -160 206 -286 240 -43 11 -49 10 -69 -7 -24
-21 -55 -24 -79 -9 -12 7 -10 11 10 19 22 8 18 10 -26 10 -44 1 -52 -2 -57
-19 -4 -17 0 -20 29 -20 19 0 34 -3 34 -8 0 -4 20 -8 44 -8 54 -2 106 -23 99
-41 -3 -7 0 -13 5 -13 6 0 31 -13 55 -30 25 -16 53 -30 63 -30 13 0 15 -3 7
-11 -8 -8 -8 -20 -2 -36 6 -15 5 -31 -1 -42 -5 -10 -6 -21 -3 -25 12 -11 13
-46 3 -46 -12 0 -18 13 -23 50 -2 14 -10 26 -18 26 -8 1 -18 2 -23 3 -5 0 -1
10 9 21 20 22 8 28 -15 8 -8 -7 -7 -4 3 8 30 37 13 73 -28 58 -9 -4 -15 0 -15
7 0 12 -2 12 -9 1 -6 -10 -10 -8 -14 9 -5 19 -9 21 -19 11 -16 -16 -28 -15
-28 4 0 8 -4 13 -9 10 -5 -3 -11 3 -14 14 -3 11 -10 20 -17 20 -6 0 -8 -5 -5
-10 4 -7 -2 -9 -19 -4 -15 3 -32 1 -39 -5 -10 -7 -17 -5 -27 9 -17 24 -30 26
-30 5 0 -9 -6 -15 -12 -14 -22 5 -78 -12 -117 -34 l-38 -22 88 0 c57 0 92 -4
101 -13 9 -9 9 -12 0 -12 -7 0 -12 -8 -13 -17 0 -15 -2 -15 -7 -3 -14 31 -72
14 -72 -21 0 -12 -4 -17 -11 -14 -15 10 -89 13 -89 4 0 -4 -16 -10 -35 -13
-55 -11 -136 -57 -182 -104 -24 -23 -43 -47 -43 -51 0 -5 -7 -11 -15 -15 -8
-3 -12 -12 -9 -19 3 -8 -2 -17 -11 -21 -10 -4 -15 -12 -11 -21 3 -9 -1 -18 -9
-21 -10 -4 -12 -15 -8 -35 3 -18 1 -29 -6 -29 -17 0 -13 -27 6 -34 15 -6 15
-8 -1 -24 -16 -16 -19 -15 -42 11 -27 32 -30 45 -10 53 10 4 12 13 7 32 -5 15
-6 33 -3 41 3 8 0 11 -6 7 -12 -7 -38 -82 -47 -137 -9 -50 20 -148 56 -192 16
-20 55 -48 86 -63 50 -23 66 -26 128 -22 54 4 72 2 72 -8 0 -16 -45 -27 -83
-19 -26 5 -26 4 -6 -4 12 -6 22 -13 22 -16 0 -8 -50 5 -85 23 l-30 15 25 -28
c24 -27 24 -27 3 -16 -13 6 -23 10 -23 7 0 -3 -12 6 -27 20 -34 31 -41 24 -14
-14 31 -45 25 -46 -16 -3 -21 21 -48 58 -61 82 -12 24 -20 35 -18 24 16 -71
17 -87 8 -82 -5 4 -15 35 -22 69 -17 89 -22 99 -30 58 -7 -32 -7 -30 -9 18 0
29 -5 51 -9 48 -5 -3 -8 22 -6 54 1 34 -2 58 -7 54 -15 -9 -10 6 7 23 11 11
12 19 5 26 -8 8 -6 16 6 29 9 10 13 18 8 18 -4 0 -3 6 3 13 6 6 11 15 12 19 9
38 14 48 23 48 6 0 8 3 4 6 -3 3 1 13 9 22 55 62 84 98 84 105 0 4 7 7 15 7 8
0 15 4 15 9 0 5 17 20 37 32 20 13 31 25 25 27 -25 8 -11 22 16 16 24 -6 25
-5 14 8 -8 10 -9 19 -3 22 5 3 11 0 14 -6 4 -10 7 -11 18 0 10 9 10 12 0 12
-7 0 -9 5 -6 10 3 6 17 7 30 4 20 -5 23 -3 18 14 -2 11 0 23 6 26 6 4 11 0 11
-9 0 -9 6 -15 12 -13 7 3 13 15 13 28 0 13 6 25 13 27 6 3 12 -2 12 -11 0 -18
8 -20 30 -6 10 6 11 10 3 10 -21 0 -15 28 8 40 17 10 20 9 17 -7 -2 -14 4 -19
27 -20 17 -1 24 0 18 3 -7 3 -13 19 -13 35 0 24 4 29 24 29 19 0 22 -4 19 -23
-4 -21 -1 -23 27 -21 30 2 57 14 32 14 -7 0 -12 9 -12 20 0 17 -7 20 -46 20
-32 0 -51 -5 -61 -17 -14 -17 -14 -17 -9 0 5 15 -5 17 -109 17 -65 0 -116 -4
-120 -10 -3 -5 2 -10 12 -11 12 0 9 -4 -9 -11 -16 -5 -28 -14 -28 -19 0 -26
-131 -111 -147 -96 -8 9 19 33 47 42 14 4 32 16 40 26 44 51 50 60 50 69 0 23
-39 7 -61 -24 -13 -19 -33 -37 -44 -40 -45 -12 -105 -4 -105 15 0 5 9 4 19 -3
26 -16 97 5 112 33 16 30 3 36 -24 11 -29 -27 -51 -28 -77 -2 -18 18 -33 20
-189 20 l-168 0 5 -25 c2 -14 10 -25 17 -25 6 0 20 -9 30 -20 17 -18 14 -25
-9 -21 -5 1 -21 -10 -36 -24 -27 -26 -28 -26 -34 -7 -4 11 -2 31 4 46 5 15 10
38 10 50 0 23 -2 23 -116 25 l-116 2 7 -33 c4 -18 16 -52 27 -77 20 -47 18
-62 -7 -41 -18 15 -20 0 -2 -19 9 -11 9 -12 0 -7 -7 4 -18 16 -24 28 -8 15 -8
19 0 14 18 -12 13 7 -14 46 -14 20 -25 41 -25 46 0 5 -7 16 -17 23 -14 13 -15
12 -5 -6 22 -41 42 -88 38 -92 -2 -2 -17 16 -32 41 -23 35 -33 44 -49 39 -11
-3 -22 -7 -24 -9 -6 -6 50 -95 64 -100 7 -3 16 -13 20 -22 3 -9 -20 9 -52 41
-39 40 -63 57 -75 54 -10 -3 -18 -1 -18 4 0 5 4 9 8 9 5 0 14 11 20 24 8 18
16 22 36 19 15 -3 26 -1 26 6 0 13 -380 14 -447 0z m290 -64 c6 -6 20 -10 32
-7 12 2 27 -4 36 -14 12 -16 12 -17 -1 -8 -23 14 -80 12 -80 -4 0 -16 26 -59
57 -93 21 -23 21 -26 6 -26 -10 0 -31 9 -46 20 -35 24 -51 12 -17 -13 18 -14
20 -20 9 -20 -8 0 -19 4 -25 9 -35 34 -144 66 -144 43 0 -10 54 -56 95 -81 22
-14 11 -11 -47 10 -41 14 -63 5 -36 -15 14 -10 12 -12 -17 -12 -23 0 -31 4
-26 11 12 14 8 45 -12 84 -22 44 -22 45 8 25 22 -14 27 -14 56 0 18 9 40 16
50 16 13 0 16 5 12 16 -4 11 1 22 13 31 10 8 17 16 15 19 -2 3 7 20 20 37 24
32 24 32 27 8 2 -13 9 -29 15 -36z m1771 -46 c-6 -10 -42 1 -55 17 -9 12 -9
13 4 9 8 -4 18 -1 22 5 5 8 11 5 20 -7 7 -10 11 -21 9 -24z m-1146 11 c-7 -10
-14 -18 -15 -16 -6 6 9 36 18 36 5 0 4 -9 -3 -20z m1216 9 c2 -2 -6 -12 -19
-21 -22 -17 -23 -17 -27 7 -4 20 -1 23 19 21 12 -2 25 -5 27 -7z m-2262 -80
c13 -7 25 -13 28 -12 3 1 28 -5 55 -12 42 -12 46 -15 28 -21 -16 -4 -23 -15
-24 -33 -2 -23 -2 -24 -6 -3 -6 31 -17 28 -53 -15 -17 -21 -28 -30 -24 -20 3
10 1 17 -5 17 -6 0 -11 8 -11 18 0 15 2 15 11 2 8 -11 9 -9 3 10 -17 61 -25
75 -34 60 -6 -8 -10 -26 -11 -40 -2 -24 -2 -24 -6 -2 -2 12 -8 20 -13 17 -4
-3 -10 2 -14 10 -3 8 -1 17 5 21 6 3 15 18 21 32 10 27 10 27 18 5 5 -12 19
-27 32 -34z m1098 31 c12 -8 11 -10 -7 -10 -13 0 -23 5 -23 10 0 13 11 13 30
0z m207 4 c-3 -3 -12 -4 -19 -1 -8 3 -5 6 6 6 11 1 17 -2 13 -5z m-1147 -34
c0 -5 -4 -10 -10 -10 -5 0 -10 5 -10 10 0 6 5 10 10 10 6 0 10 -4 10 -10z
m-250 -14 c0 -7 -9 -16 -20 -19 -25 -6 -26 1 -2 19 22 17 22 17 22 0z m2035
-6 c-3 -5 -12 -10 -18 -10 -7 0 -6 4 3 10 19 12 23 12 15 0z m-105 -7 c0 -5
-5 -15 -10 -23 -8 -12 -10 -11 -10 8 0 12 5 22 10 22 6 0 10 -3 10 -7z m47
-45 c-3 -8 -6 -5 -6 6 -1 11 2 17 5 13 3 -3 4 -12 1 -19z m423 -18 c0 -5 -5
-10 -11 -10 -5 0 -7 5 -4 10 3 6 8 10 11 10 2 0 4 -4 4 -10z m-2093 -42 c12
-9 7 -38 -6 -38 -4 0 -12 14 -18 30 -11 31 -7 32 24 8z m1666 -34 c47 -38 67
-92 74 -203 3 -55 10 -101 14 -101 5 0 6 -7 3 -15 -4 -8 -1 -15 6 -15 9 0 10
-3 1 -14 -9 -11 -8 -15 5 -20 16 -6 16 -8 -1 -20 -17 -12 -17 -13 4 -19 11 -3
21 -10 21 -17 0 -6 -4 -9 -9 -5 -5 3 -12 1 -15 -4 -3 -5 3 -11 14 -14 11 -3
20 -13 20 -22 0 -9 -4 -14 -9 -11 -5 3 -12 -1 -15 -10 -5 -13 -1 -16 21 -12
23 3 28 0 29 -18 1 -16 -3 -20 -17 -17 -16 5 -19 0 -18 -28 0 -19 3 -28 6 -21
2 6 17 12 33 12 22 0 29 -6 34 -26 4 -16 2 -32 -4 -38 -8 -8 -11 -7 -8 3 2 8
-8 14 -25 16 -19 3 -25 0 -20 -8 4 -7 6 -25 4 -41 l-3 -29 26 21 c22 17 30 18
51 9 14 -7 25 -18 25 -25 0 -7 7 -20 15 -28 8 -9 15 -23 15 -32 0 -13 -2 -13
-13 3 -10 12 -22 16 -40 13 -15 -3 -27 -2 -27 1 0 3 -9 12 -19 18 -18 11 -18
10 -5 -17 8 -15 14 -46 13 -67 -2 -38 28 -132 46 -145 6 -5 6 -11 -2 -19 -7
-7 -9 -24 -6 -40 4 -20 1 -29 -7 -29 -9 0 -10 -11 -5 -37 4 -21 9 -49 12 -63
2 -14 10 -37 18 -52 8 -16 9 -30 4 -34 -14 -8 -11 -23 10 -41 19 -16 19 -17
-7 -43 -22 -22 -26 -34 -23 -74 2 -33 -1 -46 -8 -41 -6 3 -20 3 -32 0 -16 -5
-20 -14 -17 -41 1 -18 -3 -39 -9 -45 -6 -6 -9 -17 -6 -24 2 -8 -2 -24 -11 -37
-9 -13 -13 -37 -11 -55 3 -21 -1 -33 -11 -37 -11 -4 -12 -10 -4 -25 15 -29 12
-40 -10 -34 -11 3 -20 9 -20 14 0 5 -17 17 -37 28 -30 16 -33 21 -18 22 11 1
27 3 35 4 8 1 21 3 29 4 11 1 10 5 -5 16 -17 13 -17 14 -1 15 9 0 17 6 17 14
0 13 -63 37 -145 54 -38 9 -36 9 22 8 34 0 56 -4 50 -8 -7 -4 6 -5 28 -1 53 8
54 10 6 18 -48 8 -55 25 -11 25 19 0 30 5 30 14 0 9 -19 16 -57 21 -62 8 -62
9 30 29 41 10 32 26 -15 28 -38 1 -36 2 17 8 33 4 49 7 36 8 -24 2 -24 2 -5
17 18 14 18 14 -6 16 -14 1 -54 1 -90 0 l-65 -2 25 20 c13 10 42 25 65 32 54
17 63 26 20 21 -56 -7 -41 13 25 33 33 10 60 22 60 27 0 4 -5 8 -11 8 -5 0 -7
5 -4 10 3 6 16 10 28 10 17 0 19 2 8 9 -11 7 -10 10 5 14 13 3 11 5 -9 6 -15
0 -59 -10 -97 -23 -39 -14 -70 -21 -70 -15 0 5 7 9 16 9 8 0 12 4 9 10 -3 5 0
10 9 10 8 0 27 11 43 24 15 12 35 26 43 29 10 4 8 6 -7 6 -12 1 -29 -6 -37
-15 -9 -8 -22 -14 -29 -11 -6 2 7 16 31 31 24 15 40 31 36 37 -4 6 0 15 7 20
11 7 10 9 -5 9 -20 0 -106 -50 -106 -62 0 -5 -5 -8 -12 -8 -6 0 -2 10 10 23
12 13 22 29 22 35 0 7 10 12 23 13 19 0 20 1 4 8 -16 6 -15 10 15 39 65 63 91
92 83 92 -11 0 -117 -80 -132 -99 -11 -14 -12 -14 -13 1 0 9 11 25 24 35 13
10 26 29 30 41 4 12 12 19 18 16 6 -4 9 -1 6 7 -3 8 4 26 14 42 25 35 17 34
-27 -4 -19 -17 -35 -29 -35 -27 0 3 13 29 30 59 31 56 40 87 16 54 -13 -18
-14 -18 -32 0 -15 15 -16 18 -3 13 12 -5 21 4 33 30 13 30 13 33 1 18 -8 -11
-15 -25 -15 -30 0 -6 -4 -5 -9 2 -4 7 -5 33 -1 57 4 24 3 42 -2 39 -4 -3 -8
-16 -8 -30 0 -14 -6 -39 -13 -57 -8 -18 -17 -49 -21 -70 -9 -48 -68 -205 -102
-272 -116 -227 -280 -386 -456 -444 -33 -11 -40 -10 -55 5 -16 16 -16 16 4 10
12 -4 24 -2 28 5 6 8 10 7 16 -2 7 -11 9 -9 9 5 0 11 9 29 19 40 39 43 61 96
61 147 0 56 -24 119 -46 119 -20 0 -18 -8 11 -42 19 -22 25 -40 24 -71 l-2
-42 -6 45 c-8 53 -17 70 -37 70 -12 0 -12 -4 0 -35 17 -41 7 -133 -18 -169
-32 -44 -46 -59 -51 -54 -3 3 0 12 7 19 19 19 35 65 42 119 5 32 3 41 -4 30
-8 -12 -10 -12 -10 6 0 26 -22 72 -37 78 -9 4 -11 -4 -7 -27 3 -23 2 -27 -4
-13 -5 11 -16 22 -25 25 -15 6 -15 9 3 36 13 19 20 24 20 14 0 -11 11 -18 29
-21 26 -4 30 -1 33 24 6 38 -10 58 -52 67 l-35 7 43 22 c23 12 42 27 42 32 0
6 9 10 20 10 11 0 20 5 20 10 0 6 -4 10 -9 10 -4 0 6 16 25 35 38 41 40 41 47
16 3 -15 13 -19 36 -19 21 1 30 5 27 13 -2 7 0 17 4 21 13 13 -11 57 -37 69
-38 16 -34 31 8 30 23 0 39 -5 39 -12 0 -6 9 -15 20 -18 26 -8 80 -65 80 -85
0 -11 3 -11 12 -2 10 10 7 24 -16 67 -30 58 -40 65 -50 38 -6 -15 -8 -15 -23
-1 -9 10 -12 21 -7 29 6 10 10 7 16 -11 6 -22 7 -21 4 7 -1 18 0 31 2 28 3 -3
16 2 30 11 14 9 27 12 31 7 3 -6 15 -12 27 -15 18 -5 21 -1 20 26 -1 20 -8 34
-22 41 -21 10 -20 11 12 21 19 6 37 7 40 3 3 -5 -3 -9 -13 -10 -15 0 -15 -2
-3 -7 37 -17 63 -43 76 -79 12 -32 14 -33 10 -8 -3 17 -9 41 -12 54 -5 17 -4
22 4 17 8 -5 10 -1 5 9 -4 11 -8 13 -13 6 -4 -7 -15 -2 -29 13 -27 28 -19 50
14 42 27 -7 41 17 21 36 -10 10 -7 16 15 35 15 13 32 23 39 23 8 0 10 8 7 21
-4 14 2 28 19 44 15 14 21 26 15 30 -7 4 -3 14 9 27 11 12 19 27 18 32 -1 6 3
27 10 46 17 51 23 95 27 184 4 90 -17 160 -61 201 -38 35 -25 53 14 20 18 -15
32 -22 32 -17 0 15 -81 72 -103 72 -10 0 -16 4 -13 9 8 12 85 -18 119 -45z
m-1752 36 c5 0 9 -8 9 -18 0 -14 -8 -18 -35 -19 -30 -1 -33 1 -20 14 9 8 12
20 8 26 -4 7 0 8 11 4 10 -4 22 -7 27 -7z m904 -20 c-3 -5 -13 -10 -21 -10 -8
0 -12 -4 -9 -10 3 -5 -1 -10 -9 -10 -9 0 -13 -6 -10 -15 3 -8 -1 -24 -10 -37
-19 -27 -20 -53 -5 -98 10 -27 13 -30 21 -16 11 20 30 12 21 -9 -7 -20 14 -45
39 -45 10 0 16 -4 13 -10 -18 -28 -90 3 -118 52 -22 39 -22 75 3 121 27 50 25
59 -5 22 -21 -25 -27 -28 -35 -15 -9 13 -11 13 -20 0 -5 -8 -9 -19 -9 -25 0
-5 3 -4 6 3 7 17 20 15 27 -4 3 -8 2 -13 -3 -10 -13 9 -21 -20 -20 -72 0 -55
19 -114 37 -120 9 -3 10 3 2 23 -15 39 -12 41 11 11 12 -16 27 -25 36 -22 8 3
11 1 8 -4 -3 -6 -2 -10 4 -10 6 0 2 -13 -7 -30 -14 -25 -19 -27 -28 -15 -11
15 -54 10 -54 -6 0 -5 -6 -9 -14 -9 -16 0 -29 27 -16 35 5 3 2 22 -7 42 -15
37 -14 117 2 156 14 34 -11 16 -34 -25 -29 -51 -46 -169 -23 -160 11 4 13 0 7
-16 -4 -14 -2 -22 5 -22 6 0 9 -4 6 -8 -2 -4 5 -14 17 -22 19 -12 20 -11 10 2
-11 12 -8 14 17 10 16 -2 27 -8 25 -13 -10 -15 34 -49 63 -49 24 -1 25 -2 9
-11 -20 -12 -86 -5 -117 11 -12 6 -34 29 -50 52 -26 35 -30 50 -30 102 0 38 8
77 19 103 12 25 15 40 8 37 -39 -15 -106 -241 -77 -259 6 -4 10 -14 9 -23 -4
-41 1 -54 17 -48 13 5 15 1 10 -21 -5 -21 -4 -24 4 -13 8 13 10 12 10 -4 0
-11 3 -16 7 -13 3 4 12 -1 19 -11 12 -15 13 -14 12 11 -1 15 -7 27 -12 27 -5
0 -6 3 -3 7 7 6 67 -45 67 -57 0 -12 -41 -50 -53 -50 -8 0 -8 3 2 9 17 11 2
21 -39 26 -30 4 -41 -8 -17 -19 6 -3 3 -5 -7 -3 -12 1 -20 11 -22 27 -1 14 -9
50 -18 80 -19 68 -20 162 -1 215 18 48 18 55 5 55 -5 0 -10 -6 -10 -12 0 -7
-6 -25 -14 -39 -38 -74 -70 -259 -45 -259 6 0 7 -4 4 -10 -3 -5 -1 -10 4 -10
6 0 11 -7 11 -15 0 -8 7 -15 15 -15 18 0 20 -17 3 -22 -7 -3 -5 -7 6 -11 10
-4 15 -3 11 3 -7 12 15 13 31 2 7 -4 13 -16 15 -27 2 -11 19 -27 36 -35 43
-20 41 -30 -6 -30 -26 0 -41 -5 -45 -16 -3 -8 -10 -12 -16 -9 -5 3 -10 2 -10
-4 0 -6 -12 -18 -26 -27 -21 -14 -27 -15 -34 -4 -11 18 -40 5 -40 -18 0 -11
10 -27 23 -35 19 -14 20 -16 4 -16 -11 -1 -33 -11 -50 -23 -18 -13 -40 -21
-49 -20 -22 4 -24 -21 -3 -38 14 -11 13 -15 -7 -26 -13 -8 -31 -17 -40 -20
-21 -7 -22 -16 -7 -31 7 -7 3 -16 -16 -31 -15 -12 -24 -26 -21 -31 4 -5 1 -15
-6 -23 -7 -7 -14 -22 -16 -33 -3 -23 -10 -50 -12 -50 -1 0 -3 -9 -5 -20 -1
-11 -6 -36 -11 -55 -15 -63 -11 -190 6 -200 8 -5 11 -10 6 -10 -5 0 -3 -7 4
-15 8 -9 9 -15 2 -15 -15 0 -42 41 -43 65 0 11 -3 14 -6 8 -9 -25 19 -82 58
-117 21 -20 35 -36 29 -36 -18 0 -89 80 -98 113 -6 17 -13 66 -16 107 -11 144
-18 180 -34 180 -13 0 -12 3 3 13 12 10 14 16 7 21 -7 4 -12 1 -12 -6 0 -7 -6
-4 -12 6 -8 15 -8 21 0 24 7 2 12 13 12 25 0 17 -2 19 -9 8 -5 -7 -14 -10 -20
-7 -16 10 -14 26 4 26 10 0 15 9 14 28 0 15 -3 21 -6 15 -10 -26 -63 -7 -63
23 0 7 10 9 24 7 23 -5 24 -2 21 28 -2 19 -4 35 -4 37 -1 1 -11 -8 -23 -20
-14 -14 -23 -18 -26 -10 -2 7 -9 12 -16 12 -14 0 -51 59 -42 67 3 4 6 1 6 -5
0 -7 15 -12 33 -12 18 0 39 -6 46 -12 10 -11 10 -8 2 15 -6 15 -12 47 -15 70
-4 44 -27 100 -46 112 -8 5 -8 11 0 20 8 10 8 19 0 36 -10 18 -9 24 4 31 11 6
14 14 8 21 -10 14 -36 99 -34 110 1 4 -3 7 -9 7 -5 0 -7 5 -4 10 10 17 -4 46
-28 58 -16 8 -18 11 -6 11 25 1 47 42 38 71 -12 41 -10 50 10 50 30 0 45 24
31 51 -10 17 -9 23 1 30 11 7 12 12 1 29 -7 11 -8 20 -3 20 17 0 24 60 9 77
-11 14 -11 16 2 11 8 -2 16 -17 18 -31 3 -22 9 -27 30 -28 27 -1 27 -1 3 -8
-14 -4 -26 -13 -29 -21 -2 -11 -1 -12 5 -3 6 9 12 7 21 -7 11 -18 10 -20 -9
-20 -36 0 -15 -25 26 -30 42 -5 42 -6 -35 -38 -24 -10 -24 -11 -2 -11 12 -1
22 -6 22 -12 0 -6 -9 -8 -22 -4 -16 4 -19 3 -9 -3 11 -8 11 -11 0 -17 -19 -12
15 -23 76 -25 28 -1 42 -4 32 -7 -9 -2 -15 -8 -12 -13 7 -11 -46 -40 -72 -40
-10 0 -25 -5 -33 -11 -11 -8 0 -9 42 -6 65 4 68 -3 8 -23 -47 -15 -59 -28 -39
-41 10 -6 11 -9 2 -9 -7 0 -13 -7 -13 -15 0 -17 32 -20 60 -5 31 17 35 -8 5
-36 -29 -27 -28 -28 12 -14 25 9 26 8 11 -4 -10 -7 -18 -25 -18 -40 l0 -28 48
27 47 26 -28 -29 c-15 -16 -25 -35 -22 -43 3 -8 -6 -22 -20 -33 -22 -17 -34
-46 -19 -46 3 0 24 14 45 31 21 17 39 26 39 21 0 -5 -6 -15 -14 -22 -8 -6 -12
-18 -9 -26 3 -8 0 -14 -6 -14 -6 0 -11 -6 -11 -14 0 -8 -6 -16 -12 -19 -7 -2
-10 -8 -6 -12 4 -4 17 3 30 14 14 14 24 18 27 10 2 -6 0 -14 -5 -18 -5 -3 -10
-14 -12 -23 -2 -12 2 -16 13 -12 11 5 15 -1 15 -22 0 -17 20 29 45 104 80 239
165 391 285 510 75 74 191 146 236 146 19 0 28 3 22 7 -7 5 2 11 23 17 46 14
61 14 54 2z m1238 -26 c-12 -9 -14 -13 -5 -14 14 0 7 -20 -7 -20 -9 0 -21 47
-14 54 2 2 13 2 24 -1 18 -5 19 -6 2 -19z m-483 6 c0 -5 -2 -10 -4 -10 -3 0
-8 5 -11 10 -3 6 -1 10 4 10 6 0 11 -4 11 -10z m-756 -49 c-10 -31 -12 -47 -4
-55 5 -5 10 -18 10 -28 0 -10 5 -18 11 -18 5 0 7 5 3 11 -4 7 1 7 15 -1 18 -9
20 -14 11 -26 -7 -7 -17 -11 -24 -7 -6 4 -17 8 -25 10 -36 5 -42 78 -10 130
27 44 32 38 13 -16z m-883 18 c-1 -8 -4 -24 -5 -36 -1 -16 -4 -19 -13 -11 -7
6 -30 8 -52 6 -22 -2 -37 0 -35 4 3 5 12 8 21 8 10 0 13 6 9 16 -5 14 -4 15 8
5 10 -8 16 -9 21 -1 3 5 0 10 -7 11 -7 0 -4 4 7 9 28 12 51 7 46 -11z m1059
-14 c11 -13 10 -14 -4 -9 -9 3 -16 10 -16 15 0 13 6 11 20 -6z m-96 -23 c13
17 56 15 56 -3 0 -5 -11 -7 -25 -3 -20 5 -25 2 -25 -13 0 -10 5 -24 12 -31 9
-9 9 -12 -1 -12 -18 0 -61 50 -61 70 1 11 4 10 16 -5 14 -19 16 -19 28 -3z
m1099 -1 c3 -14 0 -17 -14 -14 -11 3 -26 0 -34 -7 -13 -10 -15 -9 -15 10 0 17
4 21 20 17 11 -3 20 -1 20 4 0 17 18 9 23 -10z m99 -29 c-2 -12 2 -22 7 -22 6
0 11 6 11 12 0 7 7 2 16 -10 9 -13 13 -26 10 -29 -3 -4 -6 -1 -6 6 0 8 -5 9
-19 1 -26 -13 -31 -13 -31 4 0 8 -11 24 -25 35 l-26 20 23 4 c35 6 43 2 40
-21z m-2375 -44 c-3 -8 -6 -5 -6 6 -1 11 2 17 5 13 3 -3 4 -12 1 -19z m1734 8
c-14 -17 3 -70 22 -63 22 7 20 37 -3 37 -12 0 -18 5 -15 10 16 25 65 -5 65
-40 0 -21 -25 -50 -43 -50 -6 0 -2 7 9 15 18 15 18 15 -7 9 -48 -10 -78 46
-43 80 19 20 31 21 15 2z m-1537 -12 c3 -8 2 -12 -4 -9 -6 3 -10 10 -10 16 0
14 7 11 14 -7z m2270 -13 c3 -5 -5 -11 -19 -13 -24 -5 -32 2 -18 15 9 10 31 9
37 -2z m-2365 -22 c-15 -9 -32 -2 -24 11 3 5 13 6 21 3 12 -4 13 -8 3 -14z
m42 -20 c-9 -23 -10 -22 -10 11 -1 23 2 31 9 24 7 -7 7 -19 1 -35z m1349 -39
c0 -5 -5 -10 -11 -10 -5 0 -7 5 -4 10 3 6 8 10 11 10 2 0 4 -4 4 -10z m704
-58 c23 -10 65 1 78 21 4 7 6 3 5 -10 -1 -16 -11 -24 -39 -31 -33 -9 -41 -7
-63 14 -14 13 -25 31 -24 41 0 15 2 15 11 -3 5 -12 20 -26 32 -32z m-769 9
c19 -9 25 -15 17 -18 -20 -7 -62 18 -62 36 0 10 3 12 8 6 4 -6 21 -17 37 -24z
m759 -56 c32 -21 106 -26 124 -8 8 8 22 11 35 7 16 -5 19 -3 14 11 -9 22 15
56 32 46 19 -12 18 -18 -4 -35 -17 -14 -18 -17 -5 -26 19 -12 27 -13 35 0 11
17 20 11 21 -14 2 -29 -35 -44 -49 -21 -9 16 -67 21 -67 5 0 -5 7 -7 15 -4 17
7 18 3 9 -20 -8 -21 -44 -21 -44 0 0 14 -1 14 -16 0 -18 -18 -34 -21 -34 -6 0
6 -7 10 -16 10 -9 0 -13 -5 -9 -12 4 -7 0 -5 -8 5 -8 9 -18 17 -23 17 -11 0
-64 61 -65 75 0 6 -2 21 -4 35 -4 20 0 17 15 -12 11 -21 31 -45 44 -53z
m-2231 23 c4 -26 2 -38 -6 -38 -9 0 -11 13 -9 41 5 47 7 47 15 -3z m1562 22
c3 -6 -4 -10 -17 -10 -18 0 -20 2 -8 10 19 12 18 12 25 0z m-1524 -27 c13 -16
12 -17 -3 -4 -10 7 -18 15 -18 17 0 8 8 3 21 -13z m1475 -11 c-5 -16 -12 -19
-33 -13 -39 10 -40 29 -1 33 41 4 41 4 34 -20z m78 -11 c3 -5 -1 -12 -10 -15
-8 -3 -14 -11 -13 -18 4 -32 -2 -38 -38 -38 -33 1 -36 2 -18 12 33 18 65 50
59 59 -3 5 -1 9 5 9 5 0 12 -4 15 -9z m-1559 -65 c0 -35 -3 -42 -17 -38 -22 5
-32 32 -13 32 8 0 15 7 15 15 0 8 -7 15 -15 15 -18 0 -20 17 -2 23 24 8 32 -4
32 -47z m1487 44 c18 0 19 -2 7 -16 -8 -9 -15 -12 -17 -6 -2 6 -9 9 -16 6 -8
-3 -16 2 -20 12 -5 12 -2 15 10 10 8 -3 25 -6 36 -6z m115 -22 c-3 -8 -6 -5
-6 6 -1 11 2 17 5 13 3 -3 4 -12 1 -19z m-1562 -30 c0 -22 25 -19 34 4 6 12
10 18 10 11 1 -8 10 -9 33 -2 41 11 38 12 38 -7 0 -9 9 -18 19 -21 11 -3 27
-21 37 -41 23 -49 10 -84 -34 -93 -28 -6 -32 -4 -33 15 -2 20 -2 20 -6 -1 -5
-27 -16 -29 -33 -8 -16 19 -29 19 -51 -1 -16 -14 -18 -14 -29 5 -6 12 -8 27
-4 33 5 8 2 9 -9 5 -11 -4 -17 -1 -17 8 0 8 7 15 15 15 8 0 19 9 25 19 12 24
13 34 1 27 -10 -7 -33 49 -23 58 7 8 27 -11 27 -26z m1620 22 c3 -5 1 -10 -4
-10 -6 0 -11 5 -11 10 0 6 2 10 4 10 3 0 8 -4 11 -10z m720 -29 c-3 -6 -11
-11 -16 -11 -5 0 -4 6 3 14 14 16 24 13 13 -3z m-1995 -1 c0 -5 -4 -10 -10
-10 -5 0 -10 5 -10 10 0 6 5 10 10 10 6 0 10 -4 10 -10z m1220 1 c0 -5 -3 -16
-6 -25 -7 -20 -34 -21 -34 -2 0 9 -9 12 -27 9 -24 -4 -26 -3 -10 7 10 7 25 9
32 6 8 -3 17 -1 20 4 8 13 25 13 25 1z m70 -10 c0 -19 -12 -41 -20 -36 -10 6
-1 45 11 45 5 0 9 -4 9 -9z m60 -1 c0 -5 -5 -10 -11 -10 -5 0 -7 5 -4 10 3 6
8 10 11 10 2 0 4 -4 4 -10z m-100 -18 c0 -4 -9 -13 -20 -20 -19 -12 -20 -11
-8 8 13 20 28 27 28 12z m-655 -22 c-3 -5 -14 -10 -23 -10 -15 0 -15 2 -2 10
20 13 33 13 25 0z m352 -12 c-3 -8 -6 -5 -6 6 -1 11 2 17 5 13 3 -3 4 -12 1
-19z m-382 -18 c3 -5 2 -10 -4 -10 -5 0 -13 5 -16 10 -3 6 -2 10 4 10 5 0 13
-4 16 -10z m170 -40 c-3 -4 1 -11 7 -13 8 -3 6 -6 -4 -6 -12 -1 -18 6 -18 20
0 11 5 17 10 14 6 -4 8 -10 5 -15z m-1110 -52 c-6 -16 -4 -20 9 -15 8 3 18 2
21 -3 9 -14 42 -12 48 3 3 7 6 5 6 -5 1 -20 -35 -48 -62 -48 -13 0 -17 5 -13
15 4 10 -1 15 -14 15 -23 0 -27 29 -8 48 17 17 20 15 13 -10z m895 -12 c0 -3
-4 -8 -10 -11 -5 -3 -10 -1 -10 4 0 6 5 11 10 11 6 0 10 -2 10 -4z m1315 -26
c8 -13 -15 -13 -35 0 -12 8 -11 10 7 10 12 0 25 -4 28 -10z m-2025 -49 c18 8
30 5 50 -9 31 -24 40 -72 13 -72 -11 0 -24 -5 -31 -12 -9 -9 -12 -9 -12 1 0 9
-9 12 -25 9 -14 -3 -25 -2 -25 2 0 3 -9 16 -20 28 -12 12 -16 22 -10 22 6 0 5
12 -5 30 -22 42 -19 47 13 18 22 -21 31 -24 52 -17z m926 -61 c12 -12 62 -15
94 -6 17 5 21 4 11 -2 -10 -7 -10 -11 -1 -17 7 -4 16 -2 20 5 5 7 10 8 14 2 9
-15 -17 -30 -39 -22 -11 4 -31 3 -44 -2 -13 -5 -26 -6 -29 -3 -3 3 0 5 6 5 7
0 12 5 12 10 0 6 -7 10 -15 10 -8 0 -15 -4 -15 -10 0 -5 -9 -1 -20 10 -11 11
-20 22 -20 25 0 8 15 6 26 -5z m1187 -21 c5 -4 6 -12 3 -18 -5 -8 -12 -6 -23
4 -9 9 -22 14 -29 11 -8 -3 -14 -1 -14 5 0 15 44 29 49 15 2 -6 8 -14 14 -17z
m-1348 1 c-3 -5 -10 -10 -16 -10 -5 0 -9 5 -9 10 0 6 7 10 16 10 8 0 12 -4 9
-10z m430 0 c3 -6 -1 -7 -9 -4 -18 7 -21 14 -7 14 6 0 13 -4 16 -10z m59 -8
c2 -4 -5 -9 -17 -9 -17 -2 -19 0 -7 7 18 12 18 12 24 2z m-584 -12 c0 -5 -2
-10 -4 -10 -3 0 -8 5 -11 10 -3 6 -1 10 4 10 6 0 11 -4 11 -10z m-660 -20 c0
-12 -38 -23 -50 -15 -23 14 -10 31 20 27 17 -2 30 -8 30 -12z m1080 10 c0 -5
-2 -10 -4 -10 -3 0 -8 5 -11 10 -3 6 -1 10 4 10 6 0 11 -4 11 -10z m965 -20
c8 0 17 5 21 11 4 8 11 3 20 -12 9 -18 9 -26 1 -31 -8 -5 -5 -12 11 -23 12 -9
20 -21 17 -26 -4 -5 -1 -9 4 -9 6 0 11 -12 11 -26 l0 -26 -30 31 c-25 24 -37
29 -59 25 -43 -9 -81 20 -81 60 0 27 5 33 33 41 24 8 33 7 35 -2 2 -7 10 -13
17 -13z m-1985 -100 c0 -5 -4 -10 -9 -10 -6 0 -13 5 -16 10 -3 6 1 10 9 10 9
0 16 -4 16 -10z m1231 -23 c-1 -12 -15 -9 -19 4 -3 6 1 10 8 8 6 -3 11 -8 11
-12z m951 -21 c-2 -11 4 -16 18 -16 17 0 20 -4 15 -22 -11 -35 -25 -46 -25
-19 0 14 -5 21 -12 18 -7 -2 -21 2 -30 10 -13 11 -21 12 -37 3 -23 -12 -27 -2
-8 22 24 31 84 34 79 4z m-2147 -26 c3 -5 1 -10 -4 -10 -6 0 -11 5 -11 10 0 6
2 10 4 10 3 0 8 -4 11 -10z m710 -72 c9 -48 21 -48 30 -1 5 26 9 33 15 23 5
-8 7 -17 4 -21 -2 -5 -7 -30 -9 -56 -4 -44 -3 -46 10 -29 22 29 32 9 12 -25
-23 -40 -22 -56 2 -35 11 10 26 16 33 13 9 -4 8 -6 -3 -6 -8 -1 -23 -17 -33
-37 -14 -32 -15 -36 -1 -31 20 8 19 -2 -2 -25 -15 -17 -15 -20 -3 -28 11 -7
11 -10 2 -10 -12 0 -37 -47 -34 -62 1 -5 -3 -8 -9 -8 -5 0 -15 -14 -20 -30 -6
-17 -17 -30 -23 -30 -7 0 -18 -11 -24 -25 -6 -14 -15 -25 -19 -25 -5 0 -19
-10 -33 -23 -14 -12 -38 -33 -55 -46 -16 -12 -30 -26 -29 -29 0 -4 -9 -6 -20
-5 -12 1 -15 0 -8 -3 20 -9 14 -26 -8 -19 -14 4 -20 2 -20 -8 0 -10 -7 -14
-22 -10 -17 3 -19 2 -9 -5 10 -7 10 -11 1 -17 -7 -4 -16 -1 -21 6 -7 11 -10 9
-15 -8 -6 -23 -24 -32 -24 -13 0 6 -5 10 -11 10 -6 0 -8 -8 -4 -19 3 -12 0
-21 -10 -25 -9 -3 -15 0 -15 10 0 9 -6 14 -12 11 -7 -2 -12 -13 -10 -24 2 -14
-4 -22 -18 -26 -17 -4 -20 -2 -15 14 7 21 -9 26 -22 7 -8 -13 -9 -18 -12 -38
0 -5 -10 -10 -20 -10 -14 0 -18 5 -14 19 3 14 -2 20 -22 23 -20 4 -25 2 -21
-9 3 -8 3 -25 0 -38 -5 -19 -12 -23 -41 -23 -20 0 -31 3 -24 7 7 5 19 20 26
34 13 25 12 27 -8 27 -12 0 -32 3 -45 6 -18 5 -21 3 -16 -10 9 -23 -18 -76
-38 -76 -10 0 -18 7 -18 16 0 8 -5 12 -10 9 -6 -4 -8 -11 -4 -16 3 -6 -3 -5
-15 3 -21 13 -21 13 -1 22 11 5 20 17 20 28 0 10 7 18 15 18 8 0 15 5 15 10 0
6 -6 10 -13 10 -8 0 -25 12 -39 28 -14 15 -35 34 -48 42 -12 8 -28 21 -36 27
-7 7 -16 13 -21 13 -10 0 -8 133 2 179 4 17 12 31 18 31 7 0 22 3 35 6 32 9
18 -22 -19 -42 -34 -17 -38 -34 -8 -34 13 0 18 -4 13 -12 -12 -18 -14 -59 -3
-53 20 13 27 -6 17 -45 -11 -42 -4 -65 12 -40 7 12 12 11 28 -8 23 -27 32 -28
32 -4 0 9 10 -3 22 -28 20 -43 21 -44 28 -20 6 17 8 20 9 7 1 -10 5 -15 11
-12 5 3 10 1 10 -6 0 -10 3 -10 12 -1 9 9 16 8 30 -5 10 -9 18 -12 18 -7 0 5
19 10 43 12 23 1 58 8 77 14 l35 12 -60 7 c-81 10 -147 41 -184 88 -36 46 -38
51 -11 44 10 -3 19 -8 18 -12 -3 -24 6 -39 32 -54 18 -11 30 -14 30 -7 0 6 7
18 15 26 8 9 15 11 15 5 0 -5 -5 -13 -11 -17 -7 -4 2 -12 22 -21 30 -12 35
-12 45 2 8 11 25 15 55 14 98 -5 182 31 275 117 19 17 34 36 34 42 0 6 8 15
17 21 10 5 14 13 10 17 -4 4 1 16 10 27 14 15 15 21 5 24 -10 4 -9 10 5 25 13
15 15 22 6 25 -18 7 -16 30 4 41 15 9 14 11 -5 23 -12 8 -22 22 -22 31 0 15 7
17 38 13 37 -5 29 2 -23 20 -20 7 -20 7 0 14 21 9 57 -18 61 -45 1 -8 6 -23
10 -32 4 -9 6 -30 5 -46 -2 -18 1 -26 8 -22 6 4 11 35 11 69 0 76 -24 132 -77
182 l-38 36 30 -5 c17 -2 33 -5 37 -5 5 -1 15 -16 23 -33 15 -36 15 -34 0 50
l-5 27 14 -25 c8 -14 18 -42 21 -62z m261 58 c2 -13 1 -13 -3 -1 -2 8 -9 13
-14 10 -5 -4 -9 -1 -9 5 0 18 25 5 26 -14z m1099 -66 c15 0 29 9 36 22 11 21
12 20 26 -13 9 -22 10 -35 3 -37 -14 -5 -13 -23 2 -19 6 1 14 -7 16 -18 3 -16
1 -17 -8 -8 -10 9 -18 5 -38 -19 l-26 -30 -18 22 c-10 13 -22 20 -26 16 -4 -4
4 -15 17 -25 20 -15 21 -21 11 -37 -17 -27 -100 -21 -100 7 0 11 -7 19 -17 19
-10 0 -24 12 -30 27 -15 32 -17 93 -3 93 6 0 10 6 10 13 0 15 38 17 59 3 9 -6
17 -3 23 8 9 16 11 16 25 -3 8 -12 25 -21 38 -21z m-1565 -30 c0 -5 -5 -10
-11 -10 -5 0 -7 5 -4 10 3 6 8 10 11 10 2 0 4 -4 4 -10z m-553 -40 c15 0 53
-58 53 -80 0 -9 -8 -4 -17 12 -27 43 -125 72 -137 41 -3 -7 -15 -13 -26 -13
-12 0 -19 -3 -16 -8 6 -10 -16 -37 -31 -37 -7 0 -13 -4 -12 -10 0 -5 7 -9 15
-9 11 2 12 -1 3 -12 -6 -8 -9 -20 -6 -27 5 -13 -11 -32 -41 -51 -7 -4 -20 -2
-29 6 -12 9 -15 9 -9 1 4 -7 3 -13 -3 -13 -5 0 -12 4 -15 9 -7 11 23 25 49 22
20 -3 20 -2 1 12 -19 14 -19 14 0 25 10 6 16 12 12 13 -26 5 -34 2 -38 -15 -8
-28 -28 -31 -32 -4 -2 15 -9 23 -21 22 -25 -2 -21 10 13 48 22 24 30 28 30 15
0 -9 2 -17 4 -17 2 0 11 -3 20 -6 10 -4 15 0 15 13 1 40 8 65 22 74 17 11 32
12 25 1 -2 -4 -1 -14 3 -21 6 -9 13 -5 25 13 16 25 55 39 40 15 -4 -7 -1 -10
7 -7 8 3 13 11 11 17 -1 6 15 2 35 -9 21 -11 43 -20 50 -20z m656 12 c-12 -2
-27 -10 -33 -18 -14 -16 -30 -19 -30 -5 0 22 30 38 57 33 24 -6 25 -7 6 -10z
m-891 -18 c-3 -17 -7 -22 -12 -13 -9 13 -2 39 10 39 4 0 5 -12 2 -26z m775 -6
c-3 -8 -6 -5 -6 6 -1 11 2 17 5 13 3 -3 4 -12 1 -19z m50 -33 c0 -8 -4 -12 -9
-9 -4 3 -8 9 -8 15 0 5 4 9 8 9 5 0 9 -7 9 -15z m1628 -12 c11 5 15 0 15 -18
0 -14 -4 -25 -10 -25 -5 0 -10 -7 -10 -15 0 -8 7 -15 16 -15 9 0 12 -5 8 -12
-5 -7 -8 -32 -9 -55 0 -26 -7 -49 -17 -59 -16 -16 -17 -15 -24 12 -3 16 -13
35 -22 42 -14 11 -14 12 1 12 12 0 20 -11 24 -31 5 -26 8 -28 15 -14 12 20 1
85 -14 85 -5 0 -8 6 -5 14 4 10 -3 17 -22 21 -24 5 -29 11 -27 33 1 38 26 55
48 35 10 -8 24 -13 33 -10z m-2196 -23 l16 -25 -28 22 c-39 30 -78 17 -90 -32
-4 -16 -5 -14 -6 7 -2 59 75 79 108 28z m601 -4 c0 -3 -4 -8 -10 -11 -5 -3
-10 -1 -10 4 0 6 5 11 10 11 6 0 10 -2 10 -4z m-238 -53 c-10 -4 -7 -9 10 -17
43 -22 28 -97 -20 -95 -13 0 -11 3 5 9 16 7 21 16 19 36 -3 30 -20 42 -32 23
-4 -7 1 -18 11 -25 10 -8 16 -16 13 -20 -9 -8 -45 13 -52 31 -8 21 22 65 43
64 11 0 12 -2 3 -6z m53 -3 c3 -6 -1 -7 -9 -4 -18 7 -21 14 -7 14 6 0 13 -4
16 -10z m589 -35 c17 -8 37 -25 45 -37 16 -26 17 -89 1 -118 -16 -31 -22 -19
-8 16 14 39 3 104 -19 104 -25 0 -40 -30 -38 -74 1 -23 0 -27 -2 -11 -5 34
-28 56 -49 48 -10 -4 -12 0 -8 11 7 19 21 21 26 4 3 -7 12 -9 22 -5 26 10 17
51 -13 55 -19 3 -21 6 -10 13 18 11 16 11 53 -6z m-1311 -54 c9 6 22 7 27 4 6
-3 10 -1 10 5 0 7 7 10 15 7 8 -4 17 -2 20 3 9 15 50 5 75 -20 16 -16 24 -38
27 -70 l4 -47 -31 5 c-35 5 -35 5 -14 38 22 33 12 41 -16 12 -13 -13 -20 -17
-16 -10 11 19 -4 72 -20 72 -8 0 -14 -7 -14 -16 0 -11 -5 -14 -16 -10 -11 4
-15 2 -11 -8 3 -7 0 -13 -6 -12 -23 2 -22 -19 1 -22 31 -5 55 -43 44 -71 l-8
-22 -22 26 c-30 34 -58 32 -82 -7 l-19 -31 -6 29 c-4 16 -8 35 -11 42 -2 6 2
12 9 13 9 0 9 2 0 6 -7 2 -13 11 -13 19 0 9 4 13 9 9 17 -10 23 16 7 28 -10 8
-14 20 -10 35 7 23 7 23 28 3 16 -15 25 -17 39 -10z m307 -1 c0 -5 -5 -10 -11
-10 -5 0 -7 5 -4 10 3 6 8 10 11 10 2 0 4 -4 4 -10z m60 -20 c0 -5 -5 -10 -11
-10 -5 0 -7 5 -4 10 3 6 8 10 11 10 2 0 4 -4 4 -10z m30 -4 c0 -3 -4 -8 -10
-11 -5 -3 -10 -1 -10 4 0 6 5 11 10 11 6 0 10 -2 10 -4z m801 -33 c13 -17 13
-17 -6 -3 -11 8 -22 16 -24 17 -2 2 0 3 6 3 6 0 17 -8 24 -17z m-797 -32 c-8
-9 -22 12 -17 26 6 15 7 14 13 -3 4 -10 6 -21 4 -23z m-54 -8 c-1 -28 -3 -34
-10 -22 -8 14 -3 59 6 59 2 0 4 -17 4 -37z m1928 -20 c-1 -27 -3 -40 -5 -31
-3 10 -10 15 -19 11 -8 -3 -14 -3 -14 -1 0 8 31 68 35 68 2 0 3 -21 3 -47z
m-1733 19 c-3 -3 -11 0 -18 7 -9 10 -8 11 6 5 10 -3 15 -9 12 -12z m-129 -21
c0 -11 -4 -17 -8 -15 -4 3 -8 12 -8 20 0 8 4 14 8 14 4 0 8 -9 8 -19z m1924 0
c0 -3 -5 -13 -10 -21 -9 -13 -12 -12 -25 4 -21 28 -19 34 10 28 14 -2 25 -7
25 -11z m57 13 c-3 -3 -12 -4 -19 -1 -8 3 -5 6 6 6 11 1 17 -2 13 -5z m-173
-39 c14 -21 14 -24 1 -19 -10 4 -18 -2 -24 -17 -7 -21 -4 -25 28 -36 20 -7 48
-10 64 -7 16 3 27 1 27 -5 0 -11 -80 -51 -103 -51 -7 0 -14 -6 -14 -13 0 -9 9
-12 24 -9 13 2 23 9 23 14 0 5 4 7 10 3 5 -3 7 -12 3 -21 -3 -8 -8 -13 -10
-10 -3 3 -15 -7 -28 -22 l-23 -27 -20 25 c-14 18 -17 27 -9 32 9 6 9 13 -1 28
-9 15 -10 26 -2 40 5 10 10 30 10 44 0 14 5 26 10 26 6 0 10 11 10 25 0 31 4
31 24 0z m-2074 1 c0 -2 -7 -9 -15 -16 -12 -10 -15 -10 -15 4 0 9 7 16 15 16
8 0 15 -2 15 -4z m312 -38 c-6 -6 -15 -8 -19 -4 -4 4 -1 11 7 16 8 5 17 7 19
4 3 -2 -1 -10 -7 -16z m48 -32 c0 -3 -4 -8 -10 -11 -5 -3 -10 -1 -10 4 0 6 5
11 10 11 6 0 10 -2 10 -4z m20 -11 c0 -8 -4 -15 -10 -15 -5 0 -7 7 -4 15 4 8
8 15 10 15 2 0 4 -7 4 -15z m-443 -62 c9 -7 12 -13 5 -13 -14 0 -42 40 -41 60
0 8 5 4 10 -10 5 -14 17 -31 26 -37z m154 -2 c4 -3 4 -15 0 -25 -7 -18 -9 -18
-30 5 -16 17 -20 19 -16 6 6 -13 3 -16 -9 -11 -13 5 -16 -1 -16 -26 0 -32 1
-33 19 -16 11 10 25 15 30 11 16 -9 13 -25 -4 -25 -9 0 -19 -10 -23 -21 -8
-20 -10 -20 -24 -5 -9 9 -23 16 -30 17 -10 0 -10 2 0 6 27 11 11 49 -23 51 -5
0 -8 -7 -7 -16 3 -13 1 -14 -9 -5 -10 10 -10 15 1 28 14 17 40 20 40 5 0 -5 5
-10 11 -10 6 0 9 6 6 13 -9 28 59 43 84 18z m2064 9 c-3 -5 -11 -10 -16 -10
-6 0 -7 5 -4 10 3 6 11 10 16 10 6 0 7 -4 4 -10z m-2040 -41 c-6 -29 -15 -37
-15 -12 0 17 8 33 16 33 2 0 1 -10 -1 -21z m752 -16 c3 -7 -9 -10 -31 -9 -20
2 -36 0 -36 -4 0 -5 -13 -13 -30 -18 -32 -12 -80 -54 -80 -72 0 -14 -18 -13
-34 2 -10 10 -5 19 27 46 51 42 69 51 120 61 49 10 59 9 64 -6z m33 -3 c0 -5
-4 -10 -10 -10 -5 0 -10 5 -10 10 0 6 5 10 10 10 6 0 10 -4 10 -10z m45 -10
c3 -5 1 -10 -4 -10 -6 0 -11 5 -11 10 0 6 2 10 4 10 3 0 8 -4 11 -10z m-854
-103 c-5 -5 -24 -11 -40 -12 -26 -2 -31 1 -30 19 0 17 2 18 7 5 10 -23 52 -6
60 24 l7 22 3 -24 c2 -13 -1 -28 -7 -34z m793 27 c3 -8 2 -12 -4 -9 -6 3 -10
10 -10 16 0 14 7 11 14 -7z m-504 -9 c0 -8 -4 -15 -10 -15 -5 0 -7 7 -4 15 4
8 8 15 10 15 2 0 4 -7 4 -15z m795 -11 c-11 -13 -20 -22 -20 -21 0 1 -8 12
-18 23 -18 21 -17 21 20 21 l38 -1 -20 -22z m-905 -8 c0 -22 -27 -40 -36 -25
-4 7 -2 15 4 17 7 2 12 10 12 18 0 9 5 12 10 9 6 -3 10 -12 10 -19z m571 14
c10 -6 19 -21 19 -33 0 -21 -1 -21 -13 3 -9 17 -21 25 -39 25 -15 -1 -24 3
-22 7 7 11 32 10 55 -2z m-183 -12 c20 -20 14 -35 -19 -47 -39 -13 -39 -13
-39 -1 0 6 9 10 20 10 21 0 27 15 10 25 -11 7 -4 25 9 25 4 0 12 -5 19 -12z
m535 -18 c-5 -19 -23 -39 -23 -25 0 9 20 45 24 45 2 0 2 -9 -1 -20z m284 -9
c14 -38 4 -49 -14 -15 -15 30 -17 44 -5 44 4 0 13 -13 19 -29z m513 22 c0 -5
-5 -15 -10 -23 -7 -12 -9 -10 -7 8 1 19 17 33 17 15z m-360 -33 c0 -5 -4 -10
-10 -10 -5 0 -10 5 -10 10 0 6 5 10 10 10 6 0 10 -4 10 -10z"/>
<path d="M1951 1246 c2 -2 15 -9 29 -15 24 -11 24 -11 6 3 -16 13 -49 24 -35
12z"/>
<path d="M1871 1014 c0 -11 3 -14 6 -6 3 7 2 16 -1 19 -3 4 -6 -2 -5 -13z"/>
<path d="M1800 1003 c0 -15 19 -37 26 -31 3 4 -1 14 -10 23 -9 9 -16 13 -16 8z"/>
<path d="M1814 879 c-3 -6 -1 -16 5 -22 8 -8 11 -5 11 11 0 24 -5 28 -16 11z"/>
<path d="M1570 822 c0 -4 -17 -14 -37 -22 l-38 -14 37 -9 c53 -13 105 -73 113
-131 7 -43 -1 -80 -31 -151 -7 -19 -7 -19 9 -3 9 9 17 24 17 33 0 9 4 14 9 11
19 -12 18 166 -1 204 -30 59 -78 110 -78 82z m17 -34 c-3 -8 -6 -5 -6 6 -1 11
2 17 5 13 3 -3 4 -12 1 -19z"/>
<path d="M1721 814 c0 -11 3 -14 6 -6 3 7 2 16 -1 19 -3 4 -6 -2 -5 -13z"/>
<path d="M1640 811 c0 -7 5 -21 10 -32 6 -10 17 -47 24 -81 12 -52 14 -57 15
-27 1 19 -6 58 -15 85 -17 50 -34 78 -34 55z"/>
<path d="M1734 775 c-3 -13 -1 -37 4 -52 9 -25 10 -22 9 24 -1 29 -3 53 -4 53
-2 0 -5 -11 -9 -25z"/>
<path d="M1731 648 c-1 -14 -4 -35 -7 -45 -5 -14 -3 -13 10 4 12 16 14 27 7
45 -10 23 -10 23 -10 -4z"/>
<path d="M1671 584 c0 -11 3 -14 6 -6 3 7 2 16 -1 19 -3 4 -6 -2 -5 -13z"/>
<path d="M828 1631 c-10 -13 -15 -28 -11 -34 3 -5 1 -19 -5 -30 -48 -105 -50
-200 -5 -295 29 -63 40 -64 18 -2 -19 54 -14 62 8 12 10 -20 24 -46 32 -56 13
-17 18 -18 40 -6 32 17 31 24 -2 46 -72 47 -98 122 -82 245 5 46 15 89 20 96
6 6 9 20 7 30 -3 16 -5 15 -20 -6z"/>
<path d="M757 1508 c-3 -13 -8 -45 -11 -73 -4 -40 -2 -36 9 19 8 38 13 71 11
73 -2 2 -6 -6 -9 -19z"/>
<path d="M730 1363 c0 -11 29 -134 35 -152 3 -8 7 -12 10 -9 2 2 -2 26 -10 53
-8 26 -15 61 -15 76 0 15 -4 31 -10 34 -5 3 -10 3 -10 -2z"/>
<path d="M692 1280 c0 -19 2 -27 5 -17 2 9 2 25 0 35 -3 9 -5 1 -5 -18z"/>
<path d="M740 1121 c0 -6 4 -13 10 -16 6 -3 7 1 4 9 -7 18 -14 21 -14 7z"/>
<path d="M198 1426 c-4 -20 0 -25 21 -29 23 -5 24 -4 8 8 -12 8 -14 14 -6 17
8 3 7 8 -4 16 -12 10 -15 8 -19 -12z"/>
<path d="M261 1434 c0 -11 3 -14 6 -6 3 7 2 16 -1 19 -3 4 -6 -2 -5 -13z"/>
<path d="M275 1170 c3 -5 8 -10 11 -10 2 0 4 5 4 10 0 6 -5 10 -11 10 -5 0 -7
-4 -4 -10z"/>
<path d="M1080 640 c0 -5 5 -10 11 -10 5 0 7 5 4 10 -3 6 -8 10 -11 10 -2 0
-4 -4 -4 -10z"/>
<path d="M640 289 c0 -5 5 -7 10 -4 6 3 10 8 10 11 0 2 -4 4 -10 4 -5 0 -10
-5 -10 -11z"/>
<path d="M2548 704 c-9 -14 7 -50 16 -36 4 7 3 19 -2 28 -5 9 -12 13 -14 8z"/>
<path d="M1493 2236 c18 -14 53 -11 63 5 3 5 -14 9 -38 9 -38 -1 -41 -2 -25
-14z"/>
<path d="M1105 2159 c-10 -30 -2 -32 12 -3 6 13 7 24 3 24 -5 0 -12 -9 -15
-21z"/>
<path d="M1980 2040 c0 -5 5 -10 10 -10 6 0 10 5 10 10 0 6 -4 10 -10 10 -5 0
-10 -4 -10 -10z"/>
</g>
</svg>
